<svg xmlns="http://www.w3.org/2000/svg" xmlns:xlink="http://www.w3.org/1999/xlink" xmlns:lucid="lucid" width="5390.99" height="2222.87"><g transform="translate(1213.4869470193348 1301)" lucid:page-tab-id="0_0"><path d="M-1180-860h2285.8v176.14H-1180z" fill="#9391ff"/><path d="M1105.8-860h1043.1v176.14H1105.8zM2148.9-860h1023.77v176.14H2148.9zM3172.67-860H4157v176.14h-984.33z" fill="#9391ff"/><path d="M-1180-683.86h2285.8v176.13H-1180z" fill="#fff"/><path d="M1105.8-683.86h1043.1v176.13H1105.8z" fill="#fe7070"/><path d="M2148.9-683.86H4157v176.13H2148.9z" fill="#54c45e"/><path d="M-1180-507.73h2285.8v176.14H-1180z" fill="#dedeff"/><path d="M1105.8-507.73H4157v176.14H1105.8z" fill="#54c45e"/><path d="M-1180-331.6h2285.8v176.15H-1180z" fill="#fff"/><path d="M1105.8-331.6h1043.1v176.15H1105.8z" fill="#fff"/><path d="M2148.9-331.6h1023.77v176.15H2148.9z" fill="#54c45e"/><path d="M3172.67-331.6H4157v176.15h-984.33z" fill="#fff"/><path d="M-1180-155.45h2285.8V20.68H-1180z" fill="#dedeff"/><path d="M1105.8-155.45h1043.1V20.68H1105.8z" fill="#dedeff"/><path d="M2148.9-155.45h1023.77V20.68H2148.9z" fill="#fe7070"/><path d="M3172.67-155.45H4157V20.68h-984.33z" fill="#54c45e"/><path d="M-1180 20.68h2285.8v176.14H-1180z" fill="#fff"/><path d="M1105.8 20.68h1043.1v176.14H1105.8z" fill="#1071e5"/><path d="M2148.9 20.68h1023.77v176.14H2148.9zM3172.67 20.68H4157v176.14h-984.33z" fill="#fff"/><path d="M-1180 196.82h2285.8v176.14H-1180z" fill="#dedeff"/><path d="M1105.8 196.82h1043.1v176.14H1105.8z" fill="#dedeff"/><path d="M2148.9 196.82h1023.77v176.14H2148.9z" fill="#fe7070"/><path d="M3172.67 196.82H4157v176.14h-984.33z" fill="#54c45e"/><path d="M-1180 372.96h2285.8V549.1H-1180z" fill="#fff"/><path d="M1105.8 372.96h1043.1V549.1H1105.8zM2148.9 372.96h1023.77V549.1H2148.9z" fill="#fff"/><path d="M3172.67 372.96H4157V549.1h-984.33z" fill="#54c45e"/><path d="M-1180 549.1h2285.8v176.13H-1180z" fill="#dedeff"/><path d="M1105.8 549.1h1043.1v176.13H1105.8z" fill="#dedeff"/><path d="M2148.9 549.1h1023.77v176.13H2148.9z" fill="#ffe342"/><path d="M3172.67 549.1H4157v176.13h-984.33z" fill="#dedeff"/><path d="M-1180 725.23h2285.8v176.14H-1180z" fill="#fff"/><path d="M1105.8 725.23h1043.1v176.14H1105.8z" fill="#fff"/><path d="M2148.9 725.23h1023.77v176.14H2148.9z" fill="#1071e5"/><path d="M3172.67 725.23H4157v176.14h-984.33z" fill="#54c45e"/><path d="M-1180-860v176.14M1105.8-860v176.14M2148.9-860v176.14M3172.67-860v176.14M4157-860v176.14M-1180-683.86v176.13M1105.8-683.86v176.13M2148.9-683.86v176.13M4157-683.86v176.13M-1180-507.73v176.14M1105.8-507.73v176.14M4157-507.73v176.14M-1180-331.6v176.15M1105.8-331.6v176.15M2148.9-331.6v176.15M3172.67-331.6v176.15M4157-331.6v176.15M-1180-155.45V20.68M1105.8-155.45V20.68M2148.9-155.45V20.68M3172.67-155.45V20.68M4157-155.45V20.68M-1180 20.68v176.14M1105.8 20.68v176.14M2148.9 20.68v176.14M3172.67 20.68v176.14M4157 20.68v176.14M-1180 196.82v176.14M1105.8 196.82v176.14M2148.9 196.82v176.14M3172.67 196.82v176.14M4157 196.82v176.14M-1180 372.96V549.1M1105.8 372.96V549.1M2148.9 372.96V549.1M3172.67 372.96V549.1M4157 372.96V549.1M-1180 549.1v176.13M1105.8 549.1v176.13M2148.9 549.1v176.13M3172.67 549.1v176.13M4157 549.1v176.13M-1180 725.23v176.14M1105.8 725.23v176.14M2148.9 725.23v176.14M3172.67 725.23v176.14M4157 725.23v176.14M-1180-860h2285.8M1105.8-860h1043.1M2148.9-860h1023.77M3172.67-860H4157M-1180-683.86h2285.8M1105.8-683.86h1043.1M2148.9-683.86H4157M-1180-507.73h2285.8M1105.8-507.73H4157M-1180-331.6h2285.8M1105.8-331.6h1043.1M2148.9-331.6h1023.77M3172.67-331.6H4157M-1180-155.45h2285.8M1105.8-155.45h1043.1M2148.9-155.45h1023.77M3172.67-155.45H4157M-1180 20.68h2285.8M1105.8 20.68h1043.1M2148.9 20.68h1023.77M3172.67 20.68H4157M-1180 196.82h2285.8M1105.8 196.82h1043.1M2148.9 196.82h1023.77M3172.67 196.82H4157M-1180 372.96h2285.8M1105.8 372.96h1043.1M2148.9 372.96h1023.77M3172.67 372.96H4157M-1180 549.1h2285.8M1105.8 549.1h1043.1M2148.9 549.1h1023.77M3172.67 549.1H4157M-1180 725.23h2285.8M-1180 901.37h2285.8M1105.8 725.23h1043.1M1105.8 901.37h1043.1M2148.9 725.23h1023.77M2148.9 901.37h1023.77M3172.67 725.23H4157M3172.67 901.37H4157" stroke="#333" fill="none"/><use xlink:href="#a" transform="matrix(1,0,0,1,1110.7951601525356,-855) translate(425.74074074074076 94.16666666666667)"/><use xlink:href="#b" transform="matrix(1,0,0,1,1110.7951601525356,-855) translate(578.6296296296297 94.16666666666667)"/><use xlink:href="#a" transform="matrix(1,0,0,1,2153.8904163348197,-855) translate(415.74074074074076 94.16666666666667)"/><use xlink:href="#c" transform="matrix(1,0,0,1,2153.8904163348197,-855) translate(568.6296296296297 94.16666666666667)"/><use xlink:href="#a" transform="matrix(1,0,0,1,3177.6690936989144,-855) translate(396.24074074074076 94.16666666666667)"/><use xlink:href="#d" transform="matrix(1,0,0,1,3177.6690936989144,-855) translate(549.1296296296297 94.16666666666667)"/><use xlink:href="#e" transform="matrix(1,0,0,1,-1175,-678.8632707774799) translate(907.9444444444446 93.1)"/><use xlink:href="#f" transform="matrix(1,0,0,1,-1175,-678.8632707774799) translate(1165.0555555555557 93.1)"/><use xlink:href="#g" transform="matrix(1,0,0,1,-1175,-678.8632707774799) translate(1213.7222222222224 93.1)"/><use xlink:href="#h" transform="matrix(1,0,0,1,-1175,-678.8632707774799) translate(1264.7222222222224 93.1)"/><use xlink:href="#i" transform="matrix(1,0,0,1,1110.7951601525356,-678.8632707774799) translate(447.5925925925926 94.16666666666667)"/><use xlink:href="#j" transform="matrix(1,0,0,1,2153.8904163348197,-678.8632707774799) translate(877.2777777777777 94.16666666666667)"/><use xlink:href="#k" transform="matrix(1,0,0,1,2153.8904163348197,-678.8632707774799) translate(986.6111111111111 94.16666666666667)"/><use xlink:href="#l" transform="matrix(1,0,0,1,-1175,-502.7265415549598) translate(968.5000000000001 93.1)"/><use xlink:href="#f" transform="matrix(1,0,0,1,-1175,-502.7265415549598) translate(1172.388888888889 93.1)"/><use xlink:href="#m" transform="matrix(1,0,0,1,-1175,-502.7265415549598) translate(1221.0555555555557 93.1)"/><use xlink:href="#j" transform="matrix(1,0,0,1,1110.7951601525356,-502.7265415549598) translate(1398.7777777777778 94.16666666666667)"/><use xlink:href="#k" transform="matrix(1,0,0,1,1110.7951601525356,-502.7265415549598) translate(1508.111111111111 94.16666666666667)"/><use xlink:href="#n" transform="matrix(1,0,0,1,-1175,-326.5898123324397) translate(978.4444444444446 93.1)"/><use xlink:href="#o" transform="matrix(1,0,0,1,-1175,-326.5898123324397) translate(1113.7777777777778 93.1)"/><use xlink:href="#j" transform="matrix(1,0,0,1,2153.8904163348197,-326.5898123324397) translate(384.77777777777777 94.16666666666667)"/><use xlink:href="#k" transform="matrix(1,0,0,1,2153.8904163348197,-326.5898123324397) translate(494.1111111111111 94.16666666666667)"/><use xlink:href="#p" transform="matrix(1,0,0,1,-1175,-150.4530831099196) translate(965.0555555555557 93.1)"/><use xlink:href="#q" transform="matrix(1,0,0,1,-1175,-150.4530831099196) translate(1144.611111111111 93.1)"/><use xlink:href="#i" transform="matrix(1,0,0,1,2153.8904163348197,-150.4530831099196) translate(437.5925925925926 94.16666666666667)"/><use xlink:href="#j" transform="matrix(1,0,0,1,3177.6690936989144,-150.4530831099196) translate(365.27777777777777 94.16666666666667)"/><use xlink:href="#k" transform="matrix(1,0,0,1,3177.6690936989144,-150.4530831099196) translate(474.6111111111111 94.16666666666667)"/><use xlink:href="#r" transform="matrix(1,0,0,1,-1175,25.683646112600513) translate(834.2222222222225 93.1)"/><use xlink:href="#s" transform="matrix(1,0,0,1,-1175,25.683646112600513) translate(969.5555555555558 93.1)"/><use xlink:href="#t" transform="matrix(1,0,0,1,-1175,25.683646112600513) translate(1246.7777777777778 93.1)"/><use xlink:href="#u" transform="matrix(1,0,0,1,1110.7951601525356,25.683646112600513) translate(443 94.16666666666667)"/><use xlink:href="#v" transform="matrix(1,0,0,1,-1175,201.82037533512062) translate(923.3333333333335 93.1)"/><use xlink:href="#f" transform="matrix(1,0,0,1,-1175,201.82037533512062) translate(1085.1111111111113 93.1)"/><use xlink:href="#w" transform="matrix(1,0,0,1,-1175,201.82037533512062) translate(1133.7777777777778 93.1)"/><use xlink:href="#i" transform="matrix(1,0,0,1,2153.8904163348197,201.82037533512062) translate(437.5925925925926 94.16666666666667)"/><use xlink:href="#j" transform="matrix(1,0,0,1,3177.6690936989144,201.82037533512062) translate(365.27777777777777 94.16666666666667)"/><use xlink:href="#k" transform="matrix(1,0,0,1,3177.6690936989144,201.82037533512062) translate(474.6111111111111 94.16666666666667)"/><g><use xlink:href="#x" transform="matrix(1,0,0,1,-1175,377.9571045576406) translate(977.2222222222224 93.1)"/><use xlink:href="#y" transform="matrix(1,0,0,1,-1175,377.9571045576406) translate(1101.5555555555557 93.1)"/></g><g><use xlink:href="#j" transform="matrix(1,0,0,1,3177.6690936989144,377.9571045576406) translate(365.27777777777777 94.16666666666667)"/><use xlink:href="#k" transform="matrix(1,0,0,1,3177.6690936989144,377.9571045576406) translate(474.6111111111111 94.16666666666667)"/></g><g><use xlink:href="#n" transform="matrix(1,0,0,1,-1175,554.0938337801608) translate(926.1666666666667 93.1)"/><use xlink:href="#z" transform="matrix(1,0,0,1,-1175,554.0938337801608) translate(1061.5 93.1)"/><use xlink:href="#A" transform="matrix(1,0,0,1,-1175,554.0938337801608) translate(1207.9444444444443 93.1)"/></g><g><use xlink:href="#B" transform="matrix(1,0,0,1,2153.8904163348197,554.0938337801608) translate(440.55555555555554 94.16666666666667)"/></g><g><use xlink:href="#n" transform="matrix(1,0,0,1,-1175,730.2305630026808) translate(961.7222222222224 93.1)"/><use xlink:href="#C" transform="matrix(1,0,0,1,-1175,730.2305630026808) translate(1097.0555555555557 93.1)"/></g><g><use xlink:href="#u" transform="matrix(1,0,0,1,2153.8904163348197,730.2305630026808) translate(433 94.16666666666667)"/></g><g><use xlink:href="#j" transform="matrix(1,0,0,1,3177.6690936989144,730.2305630026808) translate(365.27777777777777 94.16666666666667)"/><use xlink:href="#k" transform="matrix(1,0,0,1,3177.6690936989144,730.2305630026808) translate(474.6111111111111 94.16666666666667)"/></g><path d="M-1192.5-1264a16 16 0 0 1 16-16H-616a16 16 0 0 1 16 16v366.63a16 16 0 0 1-16 16h-560.5a16 16 0 0 1-16-16z" stroke="#4c535d" stroke-width="2" fill="#fff"/><path d="M-1127.24-1172.47c0 7.73-6.26 13.98-13.98 13.98-7.72 0-13.98-6.24-13.98-13.97 0-7.72 6.26-13.98 13.98-13.98 7.72 0 13.98 6.26 13.98 13.98z" stroke="#000" stroke-opacity=".25" fill="#fe7070"/><path d="M-1127.24-1103.18c0 7.72-6.26 13.98-13.98 13.98-7.72 0-13.98-6.26-13.98-13.98 0-7.72 6.26-13.98 13.98-13.98 7.72 0 13.98 6.26 13.98 13.98z" stroke="#000" stroke-opacity=".25" fill="#1071e5"/><path d="M-1127.24-1033.9c0 7.73-6.26 14-13.98 14-7.72 0-13.98-6.27-13.98-14 0-7.7 6.26-13.97 13.98-13.97 7.72 0 13.98 6.25 13.98 13.98z" stroke="#000" stroke-opacity=".25" fill="#ffe342"/><path d="M-1127.24-964.6c0 7.72-6.26 13.98-13.98 13.98-7.72 0-13.98-6.26-13.98-14 0-7.7 6.26-13.97 13.98-13.97 7.72 0 13.98 6.27 13.98 14z" stroke="#000" stroke-opacity=".25" fill="#54c45e"/><g><use xlink:href="#D" transform="matrix(1,0,0,1,-1155.2025160505304,-1252.0366767733967) translate(0 37.87777777777776)"/><use xlink:href="#E" transform="matrix(1,0,0,1,-1155.2025160505304,-1252.0366767733967) translate(135.06604938271576 37.87777777777776)"/><use xlink:href="#F" transform="matrix(1,0,0,1,-1155.2025160505304,-1252.0366767733967) translate(262.447530864197 37.87777777777776)"/></g><g><use xlink:href="#G" transform="matrix(1,0,0,1,-1113.2575312106255,-1186.4489023645292) translate(0 38.57777777777775)"/></g><g><use xlink:href="#H" transform="matrix(1,0,0,1,-1113.2575312106255,-1117.1620014808345) translate(0 38.57777777777776)"/></g><g><use xlink:href="#I" transform="matrix(1,0,0,1,-1113.2575312106255,-1047.8751005971399) translate(0 38.57777777777776)"/></g><g><use xlink:href="#J" transform="matrix(1,0,0,1,-1113.2575312106255,-978.5881997134453) translate(0 38.57777777777777)"/><use xlink:href="#K" transform="matrix(1,0,0,1,-1113.2575312106255,-978.5881997134453) translate(80.65493827160486 38.57777777777777)"/></g><defs><path fill="#333" d="M275 0h-61l-44-196L126 0H64L0-248h53L97-49l45-199h58l43 199 44-199h52" id="L"/><path fill="#333" d="M185-48c-13 30-37 53-82 52C43 2 14-33 14-96s30-98 90-98c62 0 83 45 84 108H66c0 31 8 55 39 56 18 0 30-7 34-22zm-45-69c5-46-57-63-70-21-2 6-4 13-4 21h74" id="M"/><path fill="#333" d="M147 0L96-86 75-71V0H25v-261h50v150l67-79h53l-66 74L201 0h-54" id="N"/><g id="a"><use transform="matrix(0.14814814814814817,0,0,0.14814814814814817,0,0)" xlink:href="#L"/><use transform="matrix(0.14814814814814817,0,0,0.14814814814814817,49.18518518518519,0)" xlink:href="#M"/><use transform="matrix(0.14814814814814817,0,0,0.14814814814814817,78.81481481481482,0)" xlink:href="#M"/><use transform="matrix(0.14814814814814817,0,0,0.14814814814814817,108.44444444444446,0)" xlink:href="#N"/></g><path fill="#333" d="M23 0v-37h61v-169l-59 37v-38l62-41h46v211h57V0H23" id="O"/><use transform="matrix(0.14814814814814817,0,0,0.14814814814814817,0,0)" xlink:href="#O" id="b"/><path fill="#333" d="M182-182c0 78-84 86-111 141h115V0H12c-6-101 99-100 120-180 1-22-12-31-33-32-23 0-32 14-35 34l-49-3c5-45 32-70 84-70 51 0 83 22 83 69" id="P"/><use transform="matrix(0.14814814814814817,0,0,0.14814814814814817,0,0)" xlink:href="#P" id="c"/><path fill="#333" d="M128-127c34 4 56 21 59 58 7 91-148 94-172 28-4-9-6-17-7-26l51-5c1 24 16 35 40 36 23 0 39-12 38-36-1-31-31-36-65-34v-40c32 2 59-3 59-33 0-20-13-33-34-33s-33 13-35 32l-50-3c6-44 37-68 86-68 50 0 83 20 83 66 0 35-22 52-53 58" id="Q"/><use transform="matrix(0.14814814814814817,0,0,0.14814814814814817,0,0)" xlink:href="#Q" id="d"/><path fill="#333" d="M24 0v-248h52V0H24" id="R"/><path fill="#333" d="M135-194c87-1 58 113 63 194h-50c-7-57 23-157-34-157-59 0-34 97-39 157H25l-1-190h47c2 12-1 28 3 38 12-26 28-41 61-42" id="S"/><path fill="#333" d="M128 0H69L1-190h53L99-40l48-150h52" id="T"/><path fill="#333" d="M137-138c1-29-70-34-71-4 15 46 118 7 119 86 1 83-164 76-172 9l43-7c4 19 20 25 44 25 33 8 57-30 24-41C81-84 22-81 20-136c-2-80 154-74 161-7" id="U"/><path fill="#333" d="M25-224v-37h50v37H25zM25 0v-190h50V0H25" id="V"/><path fill="#333" d="M115-3C79 11 28 4 28-45v-112H4v-33h27l15-45h31v45h36v33H77v99c-1 23 16 31 38 25v30" id="W"/><path fill="#333" d="M195-6C206 82 75 100 31 46c-4-6-6-13-8-21l49-6c3 16 16 24 34 25 40 0 42-37 40-79-11 22-30 35-61 35-53 0-70-43-70-97 0-56 18-96 73-97 30 0 46 14 59 34l2-30h47zm-90-29c32 0 41-27 41-63 0-35-9-62-40-62-32 0-39 29-40 63 0 36 9 62 39 62" id="X"/><path fill="#333" d="M133-34C117-15 103 5 69 4 32 3 11-16 11-54c-1-60 55-63 116-61 1-26-3-47-28-47-18 1-26 9-28 27l-52-2c7-38 36-58 82-57s74 22 75 68l1 82c-1 14 12 18 25 15v27c-30 8-71 5-69-32zm-48 3c29 0 43-24 42-57-32 0-66-3-65 30 0 17 8 27 23 27" id="Y"/><path fill="#333" d="M110-194c64 0 96 36 96 99 0 64-35 99-97 99-61 0-95-36-95-99 0-62 34-99 96-99zm-1 164c35 0 45-28 45-65 0-40-10-65-43-65-34 0-45 26-45 65 0 36 10 65 43 65" id="Z"/><g id="e"><use transform="matrix(0.1111111111111111,0,0,0.1111111111111111,0,0)" xlink:href="#R"/><use transform="matrix(0.1111111111111111,0,0,0.1111111111111111,11.11111111111111,0)" xlink:href="#S"/><use transform="matrix(0.1111111111111111,0,0,0.1111111111111111,35.44444444444444,0)" xlink:href="#T"/><use transform="matrix(0.1111111111111111,0,0,0.1111111111111111,57.666666666666664,0)" xlink:href="#M"/><use transform="matrix(0.1111111111111111,0,0,0.1111111111111111,79.88888888888889,0)" xlink:href="#U"/><use transform="matrix(0.1111111111111111,0,0,0.1111111111111111,102.11111111111111,0)" xlink:href="#V"/><use transform="matrix(0.1111111111111111,0,0,0.1111111111111111,113.22222222222223,0)" xlink:href="#W"/><use transform="matrix(0.1111111111111111,0,0,0.1111111111111111,126.44444444444446,0)" xlink:href="#X"/><use transform="matrix(0.1111111111111111,0,0,0.1111111111111111,150.7777777777778,0)" xlink:href="#Y"/><use transform="matrix(0.1111111111111111,0,0,0.1111111111111111,173.00000000000003,0)" xlink:href="#W"/><use transform="matrix(0.1111111111111111,0,0,0.1111111111111111,186.22222222222226,0)" xlink:href="#V"/><use transform="matrix(0.1111111111111111,0,0,0.1111111111111111,197.33333333333337,0)" xlink:href="#Z"/><use transform="matrix(0.1111111111111111,0,0,0.1111111111111111,221.6666666666667,0)" xlink:href="#S"/></g><path fill="#333" d="M121-226c-27-7-43 5-38 36h38v33H83V0H34v-157H6v-33h28c-9-59 32-81 87-68v32" id="aa"/><g id="f"><use transform="matrix(0.1111111111111111,0,0,0.1111111111111111,0,0)" xlink:href="#Z"/><use transform="matrix(0.1111111111111111,0,0,0.1111111111111111,24.333333333333332,0)" xlink:href="#aa"/></g><path fill="#333" d="M199 0l-22-63H83L61 0H9l90-248h61L250 0h-51zm-33-102l-36-108c-10 38-24 72-36 108h72" id="ab"/><g id="g"><use transform="matrix(0.1111111111111111,0,0,0.1111111111111111,0,0)" xlink:href="#ab"/><use transform="matrix(0.1111111111111111,0,0,0.1111111111111111,28.777777777777775,0)" xlink:href="#R"/></g><path fill="#333" d="M136-208V0H84v-208H4v-40h212v40h-80" id="ac"/><path fill="#333" d="M25 0v-261h50V0H25" id="ad"/><g id="h"><use transform="matrix(0.1111111111111111,0,0,0.1111111111111111,0,0)" xlink:href="#ac"/><use transform="matrix(0.1111111111111111,0,0,0.1111111111111111,21.333333333333332,0)" xlink:href="#Z"/><use transform="matrix(0.1111111111111111,0,0,0.1111111111111111,45.666666666666664,0)" xlink:href="#Z"/><use transform="matrix(0.1111111111111111,0,0,0.1111111111111111,70,0)" xlink:href="#ad"/><use transform="matrix(0.1111111111111111,0,0,0.1111111111111111,81.11111111111111,0)" xlink:href="#U"/></g><path fill="#333" d="M230 0l2-204L168 0h-37L68-204 70 0H24v-248h70l56 185 57-185h69V0h-46" id="ae"/><path fill="#333" d="M85 4C-2 5 27-109 22-190h50c7 57-23 150 33 157 60-5 35-97 40-157h50l1 190h-47c-2-12 1-28-3-38-12 25-28 42-61 42" id="af"/><g id="i"><use transform="matrix(0.14814814814814817,0,0,0.14814814814814817,0,0)" xlink:href="#ae"/><use transform="matrix(0.14814814814814817,0,0,0.14814814814814817,44.296296296296305,0)" xlink:href="#Y"/><use transform="matrix(0.14814814814814817,0,0,0.14814814814814817,73.92592592592594,0)" xlink:href="#S"/><use transform="matrix(0.14814814814814817,0,0,0.14814814814814817,106.37037037037038,0)" xlink:href="#af"/></g><path fill="#333" d="M76-208v77h127v40H76V0H24v-248h183v40H76" id="ag"/><g id="j"><use transform="matrix(0.14814814814814817,0,0,0.14814814814814817,0,0)" xlink:href="#ag"/><use transform="matrix(0.14814814814814817,0,0,0.14814814814814817,32.44444444444445,0)" xlink:href="#af"/><use transform="matrix(0.14814814814814817,0,0,0.14814814814814817,64.8888888888889,0)" xlink:href="#ad"/><use transform="matrix(0.14814814814814817,0,0,0.14814814814814817,79.70370370370374,0)" xlink:href="#ad"/></g><path fill="#333" d="M220-157c-53 9-28 100-34 157h-49v-107c1-27-5-49-29-50C55-147 81-57 75 0H25l-1-190h47c2 12-1 28 3 38 10-53 101-56 108 0 13-22 24-43 59-42 82 1 51 116 57 194h-49v-107c-1-25-5-48-29-50" id="ah"/><g id="k"><use transform="matrix(0.14814814814814817,0,0,0.14814814814814817,0,0)" xlink:href="#ac"/><use transform="matrix(0.14814814814814817,0,0,0.14814814814814817,28.44444444444445,0)" xlink:href="#M"/><use transform="matrix(0.14814814814814817,0,0,0.14814814814814817,58.07407407407408,0)" xlink:href="#Y"/><use transform="matrix(0.14814814814814817,0,0,0.14814814814814817,87.70370370370374,0)" xlink:href="#ah"/></g><path fill="#333" d="M67-125c0 53 21 87 73 88 37 1 54-22 65-47l45 17C233-25 199 4 140 4 58 4 20-42 15-125 8-235 124-281 211-232c18 10 29 29 36 50l-46 12c-8-25-30-41-62-41-52 0-71 34-72 86" id="ai"/><path fill="#333" d="M190-63c-7 42-38 67-86 67-59 0-84-38-90-98-12-110 154-137 174-36l-49 2c-2-19-15-32-35-32-30 0-35 28-38 64-6 74 65 87 74 30" id="aj"/><g id="l"><use transform="matrix(0.1111111111111111,0,0,0.1111111111111111,0,0)" xlink:href="#ai"/><use transform="matrix(0.1111111111111111,0,0,0.1111111111111111,28.777777777777775,0)" xlink:href="#Z"/><use transform="matrix(0.1111111111111111,0,0,0.1111111111111111,53.11111111111111,0)" xlink:href="#ad"/><use transform="matrix(0.1111111111111111,0,0,0.1111111111111111,64.22222222222221,0)" xlink:href="#ad"/><use transform="matrix(0.1111111111111111,0,0,0.1111111111111111,75.33333333333333,0)" xlink:href="#M"/><use transform="matrix(0.1111111111111111,0,0,0.1111111111111111,97.55555555555554,0)" xlink:href="#aj"/><use transform="matrix(0.1111111111111111,0,0,0.1111111111111111,119.77777777777777,0)" xlink:href="#W"/><use transform="matrix(0.1111111111111111,0,0,0.1111111111111111,133,0)" xlink:href="#V"/><use transform="matrix(0.1111111111111111,0,0,0.1111111111111111,144.11111111111111,0)" xlink:href="#Z"/><use transform="matrix(0.1111111111111111,0,0,0.1111111111111111,168.44444444444446,0)" xlink:href="#S"/></g><path fill="#333" d="M24-248c120-7 223 5 221 122C244-46 201 0 124 0H24v-248zM76-40c74 7 117-18 117-86 0-67-45-88-117-82v168" id="ak"/><g id="m"><use transform="matrix(0.1111111111111111,0,0,0.1111111111111111,0,0)" xlink:href="#ak"/><use transform="matrix(0.1111111111111111,0,0,0.1111111111111111,28.777777777777775,0)" xlink:href="#Y"/><use transform="matrix(0.1111111111111111,0,0,0.1111111111111111,51,0)" xlink:href="#W"/><use transform="matrix(0.1111111111111111,0,0,0.1111111111111111,64.22222222222223,0)" xlink:href="#Y"/></g><path fill="#333" d="M135-150c-39-12-60 13-60 57V0H25l-1-190h47c2 13-1 29 3 40 6-28 27-53 61-41v41" id="al"/><g id="n"><use transform="matrix(0.1111111111111111,0,0,0.1111111111111111,0,0)" xlink:href="#ai"/><use transform="matrix(0.1111111111111111,0,0,0.1111111111111111,28.777777777777775,0)" xlink:href="#al"/><use transform="matrix(0.1111111111111111,0,0,0.1111111111111111,44.33333333333333,0)" xlink:href="#M"/><use transform="matrix(0.1111111111111111,0,0,0.1111111111111111,66.55555555555554,0)" xlink:href="#Y"/><use transform="matrix(0.1111111111111111,0,0,0.1111111111111111,88.77777777777777,0)" xlink:href="#W"/><use transform="matrix(0.1111111111111111,0,0,0.1111111111111111,102,0)" xlink:href="#M"/></g><path fill="#333" d="M175 0L67-191c6 58 2 128 3 191H24v-248h59L193-55c-6-58-2-129-3-193h46V0h-61" id="am"/><path fill="#333" d="M135-194c52 0 70 43 70 98 0 56-19 99-73 100-30 1-46-15-58-35L72 0H24l1-261h50v104c11-23 29-37 60-37zM114-30c31 0 40-27 40-66 0-37-7-63-39-63s-41 28-41 65c0 36 8 64 40 64" id="an"/><g id="o"><use transform="matrix(0.1111111111111111,0,0,0.1111111111111111,0,0)" xlink:href="#am"/><use transform="matrix(0.1111111111111111,0,0,0.1111111111111111,28.777777777777775,0)" xlink:href="#Z"/><use transform="matrix(0.1111111111111111,0,0,0.1111111111111111,53.11111111111111,0)" xlink:href="#W"/><use transform="matrix(0.1111111111111111,0,0,0.1111111111111111,66.33333333333333,0)" xlink:href="#M"/><use transform="matrix(0.1111111111111111,0,0,0.1111111111111111,88.55555555555554,0)" xlink:href="#an"/><use transform="matrix(0.1111111111111111,0,0,0.1111111111111111,112.88888888888887,0)" xlink:href="#Z"/><use transform="matrix(0.1111111111111111,0,0,0.1111111111111111,137.2222222222222,0)" xlink:href="#Z"/><use transform="matrix(0.1111111111111111,0,0,0.1111111111111111,161.55555555555554,0)" xlink:href="#N"/></g><g id="p"><use transform="matrix(0.1111111111111111,0,0,0.1111111111111111,0,0)" xlink:href="#ai"/><use transform="matrix(0.1111111111111111,0,0,0.1111111111111111,28.777777777777775,0)" xlink:href="#ad"/><use transform="matrix(0.1111111111111111,0,0,0.1111111111111111,39.888888888888886,0)" xlink:href="#M"/><use transform="matrix(0.1111111111111111,0,0,0.1111111111111111,62.11111111111111,0)" xlink:href="#Y"/><use transform="matrix(0.1111111111111111,0,0,0.1111111111111111,84.33333333333333,0)" xlink:href="#S"/><use transform="matrix(0.1111111111111111,0,0,0.1111111111111111,108.66666666666666,0)" xlink:href="#V"/><use transform="matrix(0.1111111111111111,0,0,0.1111111111111111,119.77777777777777,0)" xlink:href="#S"/><use transform="matrix(0.1111111111111111,0,0,0.1111111111111111,144.11111111111111,0)" xlink:href="#X"/></g><g id="q"><use transform="matrix(0.1111111111111111,0,0,0.1111111111111111,0,0)" xlink:href="#ak"/><use transform="matrix(0.1111111111111111,0,0,0.1111111111111111,28.777777777777775,0)" xlink:href="#Y"/><use transform="matrix(0.1111111111111111,0,0,0.1111111111111111,51,0)" xlink:href="#W"/><use transform="matrix(0.1111111111111111,0,0,0.1111111111111111,64.22222222222223,0)" xlink:href="#Y"/><use transform="matrix(0.1111111111111111,0,0,0.1111111111111111,86.44444444444446,0)" xlink:href="#U"/><use transform="matrix(0.1111111111111111,0,0,0.1111111111111111,108.66666666666669,0)" xlink:href="#M"/><use transform="matrix(0.1111111111111111,0,0,0.1111111111111111,130.8888888888889,0)" xlink:href="#W"/><use transform="matrix(0.1111111111111111,0,0,0.1111111111111111,144.11111111111114,0)" xlink:href="#U"/></g><g id="r"><use transform="matrix(0.11111111111111108,0,0,0.11111111111111108,0,0)" xlink:href="#ai"/><use transform="matrix(0.11111111111111108,0,0,0.11111111111111108,28.777777777777768,0)" xlink:href="#al"/><use transform="matrix(0.11111111111111108,0,0,0.11111111111111108,44.333333333333314,0)" xlink:href="#M"/><use transform="matrix(0.11111111111111108,0,0,0.11111111111111108,66.55555555555553,0)" xlink:href="#Y"/><use transform="matrix(0.11111111111111108,0,0,0.11111111111111108,88.77777777777774,0)" xlink:href="#W"/><use transform="matrix(0.11111111111111108,0,0,0.11111111111111108,101.99999999999996,0)" xlink:href="#M"/></g><path fill="#333" d="M240-174c0 40-23 61-54 70L253 0h-59l-57-94H76V0H24v-248c93 4 217-23 216 74zM76-134c48-2 112 12 112-38 0-48-66-32-112-35v73" id="ao"/><path fill="#333" d="M84 4C32 4 15-41 15-95c0-55 18-99 73-99 29 0 47 12 58 34l2-30h48l-1 265h-49V-32C136-9 114 4 84 4zm21-34c32 0 41-29 41-66 0-36-9-64-40-64-33 0-39 30-40 65 0 43 13 65 39 65" id="ap"/><g id="s"><use transform="matrix(0.11111111111111108,0,0,0.11111111111111108,0,0)" xlink:href="#ao"/><use transform="matrix(0.11111111111111108,0,0,0.11111111111111108,28.777777777777768,0)" xlink:href="#M"/><use transform="matrix(0.11111111111111108,0,0,0.11111111111111108,50.999999999999986,0)" xlink:href="#ap"/><use transform="matrix(0.11111111111111108,0,0,0.11111111111111108,75.33333333333331,0)" xlink:href="#af"/><use transform="matrix(0.11111111111111108,0,0,0.11111111111111108,99.66666666666664,0)" xlink:href="#V"/><use transform="matrix(0.11111111111111108,0,0,0.11111111111111108,110.77777777777774,0)" xlink:href="#al"/><use transform="matrix(0.11111111111111108,0,0,0.11111111111111108,126.3333333333333,0)" xlink:href="#M"/><use transform="matrix(0.11111111111111108,0,0,0.11111111111111108,148.5555555555555,0)" xlink:href="#ah"/><use transform="matrix(0.11111111111111108,0,0,0.11111111111111108,184.11111111111103,0)" xlink:href="#M"/><use transform="matrix(0.11111111111111108,0,0,0.11111111111111108,206.33333333333326,0)" xlink:href="#S"/><use transform="matrix(0.11111111111111108,0,0,0.11111111111111108,230.6666666666666,0)" xlink:href="#W"/><use transform="matrix(0.11111111111111108,0,0,0.11111111111111108,243.8888888888888,0)" xlink:href="#U"/></g><g id="t"><use transform="matrix(0.11111111111111108,0,0,0.11111111111111108,0,0)" xlink:href="#ak"/><use transform="matrix(0.11111111111111108,0,0,0.11111111111111108,28.777777777777768,0)" xlink:href="#Z"/><use transform="matrix(0.11111111111111108,0,0,0.11111111111111108,53.11111111111109,0)" xlink:href="#aj"/><use transform="matrix(0.11111111111111108,0,0,0.11111111111111108,75.33333333333331,0)" xlink:href="#af"/><use transform="matrix(0.11111111111111108,0,0,0.11111111111111108,99.66666666666664,0)" xlink:href="#ah"/><use transform="matrix(0.11111111111111108,0,0,0.11111111111111108,135.22222222222217,0)" xlink:href="#M"/><use transform="matrix(0.11111111111111108,0,0,0.11111111111111108,157.4444444444444,0)" xlink:href="#S"/><use transform="matrix(0.11111111111111108,0,0,0.11111111111111108,181.77777777777771,0)" xlink:href="#W"/></g><path fill="#333" d="M24-248c93 1 206-16 204 79-1 75-69 88-152 82V0H24v-248zm52 121c47 0 100 7 100-41 0-47-54-39-100-39v80" id="aq"/><g id="u"><use transform="matrix(0.14814814814814817,0,0,0.14814814814814817,0,0)" xlink:href="#aq"/><use transform="matrix(0.14814814814814817,0,0,0.14814814814814817,35.55555555555556,0)" xlink:href="#al"/><use transform="matrix(0.14814814814814817,0,0,0.14814814814814817,56.296296296296305,0)" xlink:href="#Y"/><use transform="matrix(0.14814814814814817,0,0,0.14814814814814817,85.92592592592594,0)" xlink:href="#W"/><use transform="matrix(0.14814814814814817,0,0,0.14814814814814817,103.55555555555557,0)" xlink:href="#V"/><use transform="matrix(0.14814814814814817,0,0,0.14814814814814817,118.37037037037038,0)" xlink:href="#N"/></g><path fill="#333" d="M135-194c53 0 70 44 70 98 0 56-19 98-73 100-31 1-45-17-59-34 3 33 2 69 2 105H25l-1-265h48c2 10 0 23 3 31 11-24 29-35 60-35zM114-30c33 0 39-31 40-66 0-38-9-64-40-64-56 0-55 130 0 130" id="ar"/><g id="v"><use transform="matrix(0.1111111111111111,0,0,0.1111111111111111,0,0)" xlink:href="#ae"/><use transform="matrix(0.1111111111111111,0,0,0.1111111111111111,33.22222222222222,0)" xlink:href="#Z"/><use transform="matrix(0.1111111111111111,0,0,0.1111111111111111,57.55555555555555,0)" xlink:href="#aj"/><use transform="matrix(0.1111111111111111,0,0,0.1111111111111111,79.77777777777777,0)" xlink:href="#N"/><use transform="matrix(0.1111111111111111,0,0,0.1111111111111111,102,0)" xlink:href="#af"/><use transform="matrix(0.1111111111111111,0,0,0.1111111111111111,126.33333333333333,0)" xlink:href="#ar"/></g><path fill="#333" d="M147 0H94L2-248h55l64 206c17-72 42-137 63-206h54" id="as"/><path fill="#333" d="M12 0v-35l95-120H19v-35h142v35L67-36h103V0H12" id="at"/><g id="w"><use transform="matrix(0.1111111111111111,0,0,0.1111111111111111,0,0)" xlink:href="#as"/><use transform="matrix(0.1111111111111111,0,0,0.1111111111111111,25.888888888888886,0)" xlink:href="#V"/><use transform="matrix(0.1111111111111111,0,0,0.1111111111111111,37,0)" xlink:href="#U"/><use transform="matrix(0.1111111111111111,0,0,0.1111111111111111,59.22222222222222,0)" xlink:href="#Y"/><use transform="matrix(0.1111111111111111,0,0,0.1111111111111111,81.44444444444444,0)" xlink:href="#ad"/><use transform="matrix(0.1111111111111111,0,0,0.1111111111111111,92.55555555555556,0)" xlink:href="#V"/><use transform="matrix(0.1111111111111111,0,0,0.1111111111111111,103.66666666666667,0)" xlink:href="#at"/><use transform="matrix(0.1111111111111111,0,0,0.1111111111111111,123.66666666666666,0)" xlink:href="#Y"/><use transform="matrix(0.1111111111111111,0,0,0.1111111111111111,145.88888888888889,0)" xlink:href="#W"/><use transform="matrix(0.1111111111111111,0,0,0.1111111111111111,159.11111111111111,0)" xlink:href="#V"/><use transform="matrix(0.1111111111111111,0,0,0.1111111111111111,170.22222222222223,0)" xlink:href="#Z"/><use transform="matrix(0.1111111111111111,0,0,0.1111111111111111,194.55555555555557,0)" xlink:href="#S"/></g><path fill="#333" d="M24 0v-248h52v208h133V0H24" id="au"/><path fill="#333" d="M140-251c80 0 125 45 125 126S219 4 139 4C58 4 15-44 15-125s44-126 125-126zm-1 214c52 0 73-35 73-88 0-50-21-86-72-86-52 0-73 35-73 86s22 88 72 88" id="av"/><path fill="#333" d="M67-125c0 54 23 88 75 88 28 0 53-7 68-21v-34h-60v-39h108v91C232-14 192 4 140 4 58 4 20-42 15-125 8-236 126-280 215-234c19 10 29 26 37 47l-47 15c-11-23-29-39-63-39-53 1-75 33-75 86" id="aw"/><g id="x"><use transform="matrix(0.1111111111111111,0,0,0.1111111111111111,0,0)" xlink:href="#as"/><use transform="matrix(0.1111111111111111,0,0,0.1111111111111111,26.666666666666664,0)" xlink:href="#au"/><use transform="matrix(0.1111111111111111,0,0,0.1111111111111111,51,0)" xlink:href="#av"/><use transform="matrix(0.1111111111111111,0,0,0.1111111111111111,82.11111111111111,0)" xlink:href="#aw"/></g><path fill="#333" d="M88-194c31-1 46 15 58 34l-1-101h50l1 261h-48c-2-10 0-23-3-31C134-8 116 4 84 4 32 4 16-41 15-95c0-56 19-97 73-99zm17 164c33 0 40-30 41-66 1-37-9-64-41-64s-38 30-39 65c0 43 13 65 39 65" id="ax"/><g id="y"><use transform="matrix(0.1111111111111111,0,0,0.1111111111111111,0,0)" xlink:href="#ao"/><use transform="matrix(0.1111111111111111,0,0,0.1111111111111111,28.777777777777775,0)" xlink:href="#M"/><use transform="matrix(0.1111111111111111,0,0,0.1111111111111111,51,0)" xlink:href="#aj"/><use transform="matrix(0.1111111111111111,0,0,0.1111111111111111,73.22222222222223,0)" xlink:href="#Z"/><use transform="matrix(0.1111111111111111,0,0,0.1111111111111111,97.55555555555556,0)" xlink:href="#al"/><use transform="matrix(0.1111111111111111,0,0,0.1111111111111111,113.11111111111111,0)" xlink:href="#ax"/><use transform="matrix(0.1111111111111111,0,0,0.1111111111111111,137.44444444444446,0)" xlink:href="#V"/><use transform="matrix(0.1111111111111111,0,0,0.1111111111111111,148.55555555555557,0)" xlink:href="#S"/><use transform="matrix(0.1111111111111111,0,0,0.1111111111111111,172.8888888888889,0)" xlink:href="#X"/></g><path fill="#333" d="M25-224v-37h50v37H25zM75 22c2 45-34 59-81 51V38c22 5 31-5 31-27v-201h50V22" id="ay"/><g id="z"><use transform="matrix(0.1111111111111111,0,0,0.1111111111111111,0,0)" xlink:href="#aq"/><use transform="matrix(0.1111111111111111,0,0,0.1111111111111111,26.666666666666664,0)" xlink:href="#al"/><use transform="matrix(0.1111111111111111,0,0,0.1111111111111111,42.22222222222222,0)" xlink:href="#Z"/><use transform="matrix(0.1111111111111111,0,0,0.1111111111111111,66.55555555555556,0)" xlink:href="#ay"/><use transform="matrix(0.1111111111111111,0,0,0.1111111111111111,77.66666666666667,0)" xlink:href="#M"/><use transform="matrix(0.1111111111111111,0,0,0.1111111111111111,99.88888888888889,0)" xlink:href="#aj"/><use transform="matrix(0.1111111111111111,0,0,0.1111111111111111,122.1111111111111,0)" xlink:href="#W"/></g><path fill="#333" d="M114-157C55-157 80-60 75 0H25v-261h50l-1 109c12-26 28-41 61-42 86-1 58 113 63 194h-50c-7-57 23-157-34-157" id="az"/><g id="A"><use transform="matrix(0.1111111111111111,0,0,0.1111111111111111,0,0)" xlink:href="#ai"/><use transform="matrix(0.1111111111111111,0,0,0.1111111111111111,28.777777777777775,0)" xlink:href="#az"/><use transform="matrix(0.1111111111111111,0,0,0.1111111111111111,53.11111111111111,0)" xlink:href="#Y"/><use transform="matrix(0.1111111111111111,0,0,0.1111111111111111,75.33333333333333,0)" xlink:href="#al"/><use transform="matrix(0.1111111111111111,0,0,0.1111111111111111,90.88888888888889,0)" xlink:href="#W"/><use transform="matrix(0.1111111111111111,0,0,0.1111111111111111,104.11111111111111,0)" xlink:href="#M"/><use transform="matrix(0.1111111111111111,0,0,0.1111111111111111,126.33333333333336,0)" xlink:href="#al"/></g><path fill="#333" d="M123 10C108 53 80 86 19 72V37c35 8 53-11 59-39L3-190h52l48 148c12-52 28-100 44-148h51" id="aA"/><g id="B"><use transform="matrix(0.14814814814814817,0,0,0.14814814814814817,0,0)" xlink:href="#ai"/><use transform="matrix(0.14814814814814817,0,0,0.14814814814814817,38.370370370370374,0)" xlink:href="#Z"/><use transform="matrix(0.14814814814814817,0,0,0.14814814814814817,70.81481481481482,0)" xlink:href="#ax"/><use transform="matrix(0.14814814814814817,0,0,0.14814814814814817,103.25925925925927,0)" xlink:href="#aA"/></g><path fill="#333" d="M231 0h-52l-39-155L100 0H48L-1-190h46L77-45c9-52 24-97 36-145h53l37 145 32-145h46" id="aB"/><g id="C"><use transform="matrix(0.1111111111111111,0,0,0.1111111111111111,0,0)" xlink:href="#aq"/><use transform="matrix(0.1111111111111111,0,0,0.1111111111111111,26.666666666666664,0)" xlink:href="#Z"/><use transform="matrix(0.1111111111111111,0,0,0.1111111111111111,51,0)" xlink:href="#aB"/><use transform="matrix(0.1111111111111111,0,0,0.1111111111111111,82.11111111111111,0)" xlink:href="#M"/><use transform="matrix(0.1111111111111111,0,0,0.1111111111111111,104.33333333333334,0)" xlink:href="#al"/><use transform="matrix(0.1111111111111111,0,0,0.1111111111111111,119.88888888888891,0)" xlink:href="#ar"/><use transform="matrix(0.1111111111111111,0,0,0.1111111111111111,144.22222222222223,0)" xlink:href="#Z"/><use transform="matrix(0.1111111111111111,0,0,0.1111111111111111,168.55555555555557,0)" xlink:href="#V"/><use transform="matrix(0.1111111111111111,0,0,0.1111111111111111,179.66666666666669,0)" xlink:href="#S"/><use transform="matrix(0.1111111111111111,0,0,0.1111111111111111,204.00000000000003,0)" xlink:href="#W"/></g><path d="M67-125c0 54 23 88 75 88 28 0 53-7 68-21v-34h-60v-39h108v91C232-14 192 4 140 4 58 4 20-42 15-125 8-236 126-280 215-234c19 10 29 26 37 47l-47 15c-11-23-29-39-63-39-53 1-75 33-75 86" id="aC"/><path d="M133-34C117-15 103 5 69 4 32 3 11-16 11-54c-1-60 55-63 116-61 1-26-3-47-28-47-18 1-26 9-28 27l-52-2c7-38 36-58 82-57s74 22 75 68l1 82c-1 14 12 18 25 15v27c-30 8-71 5-69-32zm-48 3c29 0 43-24 42-57-32 0-66-3-65 30 0 17 8 27 23 27" id="aD"/><path d="M135-194c87-1 58 113 63 194h-50c-7-57 23-157-34-157-59 0-34 97-39 157H25l-1-190h47c2 12-1 28 3 38 12-26 28-41 61-42" id="aE"/><path d="M115-3C79 11 28 4 28-45v-112H4v-33h27l15-45h31v45h36v33H77v99c-1 23 16 31 38 25v30" id="aF"/><g id="D"><use transform="matrix(0.13024691358024665,0,0,0.13024691358024665,0,0)" xlink:href="#aC"/><use transform="matrix(0.13024691358024665,0,0,0.13024691358024665,36.46913580246906,0)" xlink:href="#aD"/><use transform="matrix(0.13024691358024665,0,0,0.13024691358024665,62.51851851851839,0)" xlink:href="#aE"/><use transform="matrix(0.13024691358024665,0,0,0.13024691358024665,91.0425925925924,0)" xlink:href="#aF"/><use transform="matrix(0.13024691358024665,0,0,0.13024691358024665,106.54197530864175,0)" xlink:href="#aF"/></g><path d="M190-63c-7 42-38 67-86 67-59 0-84-38-90-98-12-110 154-137 174-36l-49 2c-2-19-15-32-35-32-30 0-35 28-38 64-6 74 65 87 74 30" id="aG"/><path d="M114-157C55-157 80-60 75 0H25v-261h50l-1 109c12-26 28-41 61-42 86-1 58 113 63 194h-50c-7-57 23-157-34-157" id="aH"/><path d="M135-150c-39-12-60 13-60 57V0H25l-1-190h47c2 13-1 29 3 40 6-28 27-53 61-41v41" id="aI"/><g id="E"><use transform="matrix(0.13024691358024665,0,0,0.13024691358024665,0,0)" xlink:href="#aG"/><use transform="matrix(0.13024691358024665,0,0,0.13024691358024665,26.04938271604933,0)" xlink:href="#aH"/><use transform="matrix(0.13024691358024665,0,0,0.13024691358024665,54.573456790123345,0)" xlink:href="#aD"/><use transform="matrix(0.13024691358024665,0,0,0.13024691358024665,80.62283950617268,0)" xlink:href="#aI"/><use transform="matrix(0.13024691358024665,0,0,0.13024691358024665,98.85740740740721,0)" xlink:href="#aF"/></g><path d="M147 0L96-86 75-71V0H25v-261h50v150l67-79h53l-66 74L201 0h-54" id="aJ"/><path d="M185-48c-13 30-37 53-82 52C43 2 14-33 14-96s30-98 90-98c62 0 83 45 84 108H66c0 31 8 55 39 56 18 0 30-7 34-22zm-45-69c5-46-57-63-70-21-2 6-4 13-4 21h74" id="aK"/><path d="M123 10C108 53 80 86 19 72V37c35 8 53-11 59-39L3-190h52l48 148c12-52 28-100 44-148h51" id="aL"/><g id="F"><use transform="matrix(0.13024691358024665,0,0,0.13024691358024665,0,0)" xlink:href="#aJ"/><use transform="matrix(0.13024691358024665,0,0,0.13024691358024665,26.04938271604933,0)" xlink:href="#aK"/><use transform="matrix(0.13024691358024665,0,0,0.13024691358024665,52.09876543209866,0)" xlink:href="#aL"/></g><path d="M240 0l2-218c-23 76-54 145-80 218h-23L58-218 59 0H30v-248h44l77 211c21-75 51-140 76-211h43V0h-30" id="aM"/><path d="M141-36C126-15 110 5 73 4 37 3 15-17 15-53c-1-64 63-63 125-63 3-35-9-54-41-54-24 1-41 7-42 31l-33-3c5-37 33-52 76-52 45 0 72 20 72 64v82c-1 20 7 32 28 27v20c-31 9-61-2-59-35zM48-53c0 20 12 33 32 33 41-3 63-29 60-74-43 2-92-5-92 41" id="aN"/><path d="M117-194c89-4 53 116 60 194h-32v-121c0-31-8-49-39-48C34-167 62-67 57 0H25l-1-190h30c1 10-1 24 2 32 11-22 29-35 61-36" id="aO"/><path d="M84 4C-5 8 30-112 23-190h32v120c0 31 7 50 39 49 72-2 45-101 50-169h31l1 190h-30c-1-10 1-25-2-33-11 22-28 36-60 37" id="aP"/><g id="G"><use transform="matrix(0.11913580246913538,0,0,0.11913580246913538,0,0)" xlink:href="#aM"/><use transform="matrix(0.11913580246913538,0,0,0.11913580246913538,35.62160493827148,0)" xlink:href="#aN"/><use transform="matrix(0.11913580246913538,0,0,0.11913580246913538,59.448765432098554,0)" xlink:href="#aO"/><use transform="matrix(0.11913580246913538,0,0,0.11913580246913538,83.27592592592563,0)" xlink:href="#aP"/></g><path d="M30-248c87 1 191-15 191 75 0 78-77 80-158 76V0H30v-248zm33 125c57 0 124 11 124-50 0-59-68-47-124-48v98" id="aQ"/><path d="M114-163C36-179 61-72 57 0H25l-1-190h30c1 12-1 29 2 39 6-27 23-49 58-41v29" id="aR"/><path d="M59-47c-2 24 18 29 38 22v24C64 9 27 4 27-40v-127H5v-23h24l9-43h21v43h35v23H59v120" id="aS"/><path d="M24-231v-30h32v30H24zM24 0v-190h32V0H24" id="aT"/><path d="M143 0L79-87 56-68V0H24v-261h32v163l83-92h37l-77 82L181 0h-38" id="aU"/><g id="H"><use transform="matrix(0.11913580246913558,0,0,0.11913580246913558,0,0)" xlink:href="#aQ"/><use transform="matrix(0.11913580246913558,0,0,0.11913580246913558,28.59259259259254,0)" xlink:href="#aR"/><use transform="matrix(0.11913580246913558,0,0,0.11913580246913558,42.76975308641967,0)" xlink:href="#aN"/><use transform="matrix(0.11913580246913558,0,0,0.11913580246913558,66.59691358024679,0)" xlink:href="#aS"/><use transform="matrix(0.11913580246913558,0,0,0.11913580246913558,78.51049382716035,0)" xlink:href="#aT"/><use transform="matrix(0.11913580246913558,0,0,0.11913580246913558,87.92222222222206,0)" xlink:href="#aU"/></g><path d="M212-179c-10-28-35-45-73-45-59 0-87 40-87 99 0 60 29 101 89 101 43 0 62-24 78-52l27 14C228-24 195 4 139 4 59 4 22-46 18-125c-6-104 99-153 187-111 19 9 31 26 39 46" id="aV"/><path d="M100-194c62-1 85 37 85 99 1 63-27 99-86 99S16-35 15-95c0-66 28-99 85-99zM99-20c44 1 53-31 53-75 0-43-8-75-51-75s-53 32-53 75 10 74 51 75" id="aW"/><path d="M85-194c31 0 48 13 60 33l-1-100h32l1 261h-30c-2-10 0-23-3-31C134-8 116 4 85 4 32 4 16-35 15-94c0-66 23-100 70-100zm9 24c-40 0-46 34-46 75 0 40 6 74 45 74 42 0 51-32 51-76 0-42-9-74-50-73" id="aX"/><path d="M179-190L93 31C79 59 56 82 12 73V49c39 6 53-20 64-50L1-190h34L92-34l54-156h33" id="aY"/><g id="I"><use transform="matrix(0.11913580246913558,0,0,0.11913580246913558,0,0)" xlink:href="#aV"/><use transform="matrix(0.11913580246913558,0,0,0.11913580246913558,30.856172839506115,0)" xlink:href="#aW"/><use transform="matrix(0.11913580246913558,0,0,0.11913580246913558,54.68333333333323,0)" xlink:href="#aX"/><use transform="matrix(0.11913580246913558,0,0,0.11913580246913558,78.51049382716035,0)" xlink:href="#aY"/></g><path d="M63-220v92h138v28H63V0H30v-248h175v28H63" id="aZ"/><path d="M24 0v-261h32V0H24" id="ba"/><g id="J"><use transform="matrix(0.1191358024691357,0,0,0.1191358024691357,0,0)" xlink:href="#aZ"/><use transform="matrix(0.1191358024691357,0,0,0.1191358024691357,26.090740740740717,0)" xlink:href="#aP"/><use transform="matrix(0.1191358024691357,0,0,0.1191358024691357,49.91790123456786,0)" xlink:href="#ba"/><use transform="matrix(0.1191358024691357,0,0,0.1191358024691357,59.32962962962958,0)" xlink:href="#ba"/></g><path d="M127-220V0H93v-220H8v-28h204v28h-85" id="bb"/><path d="M100-194c63 0 86 42 84 106H49c0 40 14 67 53 68 26 1 43-12 49-29l28 8c-11 28-37 45-77 45C44 4 14-33 15-96c1-61 26-98 85-98zm52 81c6-60-76-77-97-28-3 7-6 17-6 28h103" id="bc"/><path d="M210-169c-67 3-38 105-44 169h-31v-121c0-29-5-50-35-48C34-165 62-65 56 0H25l-1-190h30c1 10-1 24 2 32 10-44 99-50 107 0 11-21 27-35 58-36 85-2 47 119 55 194h-31v-121c0-29-5-49-35-48" id="bd"/><g id="K"><use transform="matrix(0.1191358024691357,0,0,0.1191358024691357,0,0)" xlink:href="#bb"/><use transform="matrix(0.1191358024691357,0,0,0.1191358024691357,21.32530864197529,0)" xlink:href="#bc"/><use transform="matrix(0.1191358024691357,0,0,0.1191358024691357,45.152469135802434,0)" xlink:href="#aN"/><use transform="matrix(0.1191358024691357,0,0,0.1191358024691357,68.97962962962957,0)" xlink:href="#bd"/></g></defs></g></svg>